<?xml version="1.0" encoding="UTF-8"?> <svg xmlns="http://www.w3.org/2000/svg" width="24" height="24" viewBox="0 0 24 24" fill="none"><g clip-path="url(#clip0_4092_11509)"><path fill-rule="evenodd" clip-rule="evenodd" d="M23.4288 6.42203L12.3715 1.6787C12.134 1.57693 11.8657 1.57693 11.6285 1.6787L0.571209 6.42203C0.224427 6.57063 0.000129992 6.91178 0.000458118 7.28903C0.00106749 7.66629 0.22663 8.00683 0.573412 8.15477L11.6307 12.8667C11.7489 12.9169 11.8745 12.942 12.0002 12.942C12.1258 12.942 12.2518 12.9169 12.3692 12.8667L23.4266 8.15472C23.7737 8.00707 23.9992 7.66624 23.9995 7.28899C23.9999 6.91207 23.7756 6.57058 23.4288 6.42203ZM12.0002 10.9756L3.33993 7.28524L12.0002 3.57006L20.6604 7.28524L12.0002 10.9756Z" fill="#101010" fill-opacity="0.8"></path><path d="M23.9235 16.3403C23.7183 15.8619 23.1633 15.6404 22.6861 15.8459L12.0001 20.43L1.31407 15.8459C0.835007 15.6398 0.281834 15.8623 0.076709 16.3403C-0.128745 16.8185 0.0927403 17.3726 0.571147 17.5777L11.6285 22.3214C11.7472 22.3723 11.8738 22.3977 12.0001 22.3977C12.1264 22.3977 12.253 22.3722 12.3717 22.3214L23.429 17.5777C23.9072 17.3725 24.1286 16.8184 23.9235 16.3403Z" fill="#101010" fill-opacity="0.8"></path><path d="M22.688 11.133C23.1665 10.9291 23.7199 11.1519 23.9245 11.6303C24.1283 12.1093 23.9056 12.6628 23.4269 12.8667L12.3696 17.5786C12.2518 17.6288 12.1258 17.654 12.0001 17.654C11.8745 17.654 11.7488 17.6288 11.6307 17.5786L0.57339 12.8667C0.0946543 12.6628 -0.128049 12.1093 0.0761386 11.6303C0.280045 11.1519 0.833499 10.9288 1.31256 11.133L12.0001 15.6875L22.688 11.133Z" fill="#101010" fill-opacity="0.8"></path></g><defs><clipPath id="clip0_4092_11509"><rect width="24" height="24" fill="white"></rect></clipPath></defs></svg> 