<?xml version="1.0" encoding="UTF-8"?> <svg xmlns="http://www.w3.org/2000/svg" width="24" height="24" viewBox="0 0 24 24" fill="none"><path d="M3 3V2C2.44772 2 2 2.44772 2 3H3ZM21 21V22C21.5523 22 22 21.5523 22 21H21ZM14 20C13.4477 20 13 20.4477 13 21C13 21.5523 13.4477 22 14 22V20ZM22 14C22 13.4477 21.5523 13 21 13C20.4477 13 20 13.4477 20 14H22ZM2 10C2 10.5523 2.44772 11 3 11C3.55228 11 4 10.5523 4 10H2ZM10 4C10.5523 4 11 3.55228 11 3C11 2.44772 10.5523 2 10 2V4ZM2.29289 3.70711L20.2929 21.7071L21.7071 20.2929L3.70711 2.29289L2.29289 3.70711ZM21 20H14V22H21V20ZM22 21V14H20V21H22ZM2 3V10H4V3H2ZM3 4H10V2H3V4Z" fill="#101010" fill-opacity="0.8"></path></svg> 